# xmcd
#
# Track frame offsets:
#	187
#	11325
#	22805
#	34600
#	50137
#	61740
#	80950
#	91350
#	103320
#	116325
#	131225
#	146125
#
# Disc length: 2161
#
# Revision: 1
# Processed by: cddbd v1.5.1PL0 Copyright (c) Steve Scherf et al.
# Submitted via: CDex 1.50Beta6
# Normalized: r0:TRMNUM
#
DISCID=a2086f0c
DTITLE=Bobby "Blue" Bland - Best of Bobby Bland Vol 2
DYEAR=1900
DGENRE=Blues
TTITLE0=Don't Cry No More
TTITLE1=Ain't That Loving You
TTITLE2=I'm Too Far Gone (To Turn Around)
TTITLE3=Drifting Blues
TTITLE4=Good Time Charlie
TTITLE5=I'm So Tired
TTITLE6=I'll Take Care of You
TTITLE7=Ain't Nothing You Can Do
TTITLE8=You're All I Need
TTITLE9=Chains of Love
TTITLE10=I Wouldn't Treat a Dog (The Way You Treated Me)
TTITLE11=This Time I'm Gone For Good
EXTD=
EXTT0=
EXTT1=
EXTT2=
EXTT3=
EXTT4=
EXTT5=
EXTT6=
EXTT7=
EXTT8=
EXTT9=
EXTT10=
EXTT11=
PLAYORDER=
